<?xml version="1.0" encoding="UTF-8" standalone="no"?>
<svg
   height="128"
   width="128"
   version="1.1"
   id="svg26"
   sodipodi:docname="plugin_icon.svg"
   inkscape:version="1.1 (c68e22c387, 2021-05-23)"
   inkscape:export-filename="C:\Users\Luca\Documents\GitHub\DynamicDayNightCycles\images\plugin_icon.png"
   inkscape:export-xdpi="600"
   inkscape:export-ydpi="600"
   xmlns:inkscape="http://www.inkscape.org/namespaces/inkscape"
   xmlns:sodipodi="http://sodipodi.sourceforge.net/DTD/sodipodi-0.dtd"
   xmlns="http://www.w3.org/2000/svg"
   xmlns:svg="http://www.w3.org/2000/svg">
  <defs
     id="defs30" />
  <sodipodi:namedview
     id="namedview28"
     pagecolor="#ffffff"
     bordercolor="#666666"
     borderopacity="1.0"
     inkscape:pageshadow="2"
     inkscape:pageopacity="0.0"
     inkscape:pagecheckerboard="0"
     showgrid="false"
     inkscape:zoom="3.5117188"
     inkscape:cx="-3.2747497"
     inkscape:cy="69.624026"
     inkscape:window-width="2560"
     inkscape:window-height="1377"
     inkscape:window-x="1912"
     inkscape:window-y="-8"
     inkscape:window-maximized="1"
     inkscape:current-layer="g15669" />
  <path
     d="M 16,0 C 7.14,0 0,7.13 0,15.99 v 95.98 c 0,8.86 7.13,15.99 16,15.99 h 96 c 8.86,0 16,-7.13 16,-15.99 V 15.99 C 128,7.14 120.86,0 112,0 Z"
     fill="#363d52"
     id="path2"
     style="fill:#a4bcff;fill-opacity:1" />
  <path
     d="M 16,0 C 7.14,0 0,7.13 0,15.99 v 95.98 c 0,8.86 7.13,15.99 16,15.99 h 96 c 8.86,0 16,-7.13 16,-15.99 V 15.99 C 128,7.14 120.86,0 112,0 Z m 0,4 h 96 c 6.64,0 12,5.35 12,11.99 v 95.98 c 0,6.64 -5.35,11.99 -12,11.99 H 16 c -6.64,0 -12,-5.35 -12,-11.99 V 15.99 C 4,9.35 9.36,4 16,4 Z"
     fill-opacity="0.4"
     id="path4" />
  <g
     id="g15669"
     transform="translate(-2.5802823,-2.9534515)">
    <g
       id="g15555"
       transform="translate(9.1078887,10.835917)">
      <path
         id="path2563-4"
         style="fill:#ffc811;fill-opacity:1;stroke:none;stroke-width:1.92756"
         d="m 56.088083,34.786619 c -7.700891,1.150982 -2.842023,4.919712 -0.709901,8.944134 -8.177495,-1.377498 -6.735369,2.01344 -4.209167,6.263022 -6.354453,-3.235234 -8.217786,-2.970015 -5.095088,5.482413 -4.936366,-6.392471 -8.9579,-5.146255 -9.984367,2.228619 -2.782792,-8.1298 -4.350402,-3.509069 -5.835259,-1.06471 0.233888,-11.19998 -4.460504,-6.126704 -7.362624,-2.659262 0.699481,-7.192566 0.130871,-7.421673 -7.981084,-5.936515 8.745707,-6.146776 -2.060417,-5.809998 -2.267637,-5.762903 7.848899,-2.914115 2.594561,-7.76618 -0.07565,-8.300223 3.450522,-1.419727 3.025881,-3.78245 1.45008,-6.26035 2.511452,-0.33063 2.505995,-3.480612 -0.715801,-6.551215 12.734943,4.850964 7.185337,-5.905477 5.816266,-6.793523 7.641025,5.706364 8.488279,0.319693 8.799777,-4.24873 0,0 6.902376,10.847131 8.473969,3.855295 0.0532,0.345818 2.403281,4.495452 5.309421,-2.444522 -0.03871,8.625847 2.694438,9.54866 7.783189,3.52921 -3.928425,7.704218 -1.706716,6.834354 3.524251,5.122214 -4.122366,6.022936 -1.541613,7.989593 3.061592,8.528845 0,0 -10.217137,3.265753 0.01804,6.068201 z"
         sodipodi:nodetypes="ccccccccccccccccccccc" />
      <circle
         style="fill:#ffe579;fill-opacity:1;stroke:none;stroke-width:1.32996"
         id="path2563-4-3"
         cx="34.327698"
         cy="33.916092"
         r="16.160177" />
    </g>
    <path
       id="path6316"
       style="fill:none;stroke:#edf1f7;stroke-width:8.43991;stroke-linecap:round"
       d="m 68.023218,26.767896 c 20.179241,-2e-6 36.537752,16.358505 36.537752,36.537746"
       sodipodi:nodetypes="cc" />
    <path
       id="path6316-2"
       style="fill:none;stroke:#edf1f7;stroke-width:8.43991;stroke-linecap:round"
       d="m 64.124928,105.02311 c -20.179242,0 -36.537749,-16.358509 -36.537749,-36.537748"
       sodipodi:nodetypes="cc" />
    <path
       id="path2563"
       style="fill:#749dd3;fill-opacity:1;stroke:none;stroke-width:1.92756"
       d="m 99.528333,69.107676 a 26.127228,26.126759 0 0 1 2.345707,10.804687 26.127228,26.126759 0 0 1 -26.126956,26.126947 26.127228,26.126759 0 0 1 -4.68164,-0.47461 23.421579,23.421579 0 0 0 16.998047,7.37891 A 23.421579,23.421579 0 0 0 111.48537,89.523692 23.421579,23.421579 0 0 0 99.528333,69.107676 Z" />
  </g>
</svg>
